<svg viewBox="0 -6 25 25"  xmlns="http://www.w3.org/2000/svg">
    <path d="M4.17674 8.75701C4.08132 8.67117 3.96908 8.60406 3.84643 8.55952C3.72377 8.51497 3.5931 8.49387 3.46187 8.4974C3.33065 8.50093 3.20144 8.52904 3.08162 8.58012C2.96181 8.63119 2.85373 8.70423 2.76357 8.79507C2.6734 8.88591 2.60291 8.99277 2.55613 9.10955C2.50934 9.22633 2.48717 9.35073 2.49088 9.47566C2.49459 9.6006 2.52411 9.72361 2.57776 9.83768C2.63141 9.95175 2.70813 10.0546 2.80354 10.1405L11.7983 18.2282C11.9838 18.3952 12.2295 18.4883 12.4849 18.4883C12.7402 18.4883 12.9859 18.3952 13.1715 18.2282L22.1672 10.1405C22.2647 10.0552 22.3434 9.95234 22.3988 9.83785C22.4542 9.72336 22.4851 9.59953 22.4898 9.47356C22.4946 9.34759 22.4729 9.22198 22.4262 9.10404C22.3795 8.98609 22.3086 8.87816 22.2177 8.78651C22.1268 8.69487 22.0177 8.62133 21.8967 8.57017C21.7757 8.51901 21.6452 8.49125 21.5128 8.48851C21.3805 8.48576 21.2488 8.50809 21.1256 8.55418C21.0024 8.60027 20.89 8.66922 20.795 8.75701L12.4849 16.2282L4.17674 8.75701Z"/>
</svg>