<?xml version="1.0" encoding="utf-8"?>
<!-- Generator: Adobe Illustrator 25.2.3, SVG Export Plug-In . SVG Version: 6.00 Build 0)  -->
<svg version="1.1" id="Layer_1" xmlns="http://www.w3.org/2000/svg" xmlns:xlink="http://www.w3.org/1999/xlink" x="0px" y="0px"
	 viewBox="0 0 675.5 289.4" style="enable-background:new 0 0 675.5 289.4;" xml:space="preserve">
    <style type="text/css">
	.st0{fill:#FFE81F;}
</style>
    <g id="Layer_2_1_">
        <g>
            <path class="st0" d="M126.7,157.1l9.2,27.2c5,14.7,9.5,26.4,10.1,26.4c0,0,0,0,0,0c0.6-0.6,18.7-53.1,18.7-53.1h35.1l-42.3,123.3
			h-24.4c0,0-26-75.2-25.9-75.4l-27.2,74.5H55.9L14.2,157.1l34.9,0c0,0,19.1,54.2,19.4,54.2c0,0,0,0,0,0l19.1-54.2L126.7,157.1
			 M2.2,148.5l3.8,11.3l41.8,122.8l2,5.8h6.1h24.1h6l2-5.6l18.9-51.7c1.6,4.7,3.4,9.8,5.1,14.9c6.5,18.8,13,37.6,13,37.6l2,5.7h6.1
			h24.4h6.1l2-5.8l42.3-123.3l3.9-11.3h-11.9h-35.1h-6.1l-2,5.8c-3.2,9.2-7.4,21.4-11,31.7c-0.5-1.6-1.1-3.2-1.7-4.9l-9.2-27.2
			l-2-5.8h-6.1H87.5h-6l-2,5.7l-11.1,31.7c-3.7-10.4-8-22.4-11.2-31.7l-2-5.7l-6,0l-34.9,0L2.2,148.5L2.2,148.5z"/>
        </g>
        <g>
            <path class="st0" d="M667,156.6l-0.1,32.3c0,0-34.8-0.1-52.5-0.1c-5.9,0-9.9,0-10.1,0c-3.1,0.6-5,7-4.1,9.9
			c0.4,1.4,3.6,6.1,7.1,10.5c3.4,4.3,9.1,11.4,12.6,15.7c8.9,11.1,10.1,13.3,10.9,19.6c1.3,10.3-3.6,21.5-12.6,28.9
			c-9.1,7.4-8.7,7.4-76.1,7.4c-1,0-2,0-3,0c-41,0-62.7-0.4-65.9-1.1c-5.6-1.3-14.5-8.6-38.2-31.2c-8.5-8.1-16.3-15.3-16.7-15.3
			c0,0,0,0,0,0l-0.3,47.5l-38.3-0.2l-0.2-122.6h48.3h37.1c25.7,0.9,43.2,26.6,39.7,42.9c-0.8,3.7-2.8,9.1-4.5,11.9
			c-3.4,5.9-12.1,13.4-19.2,16.6c-2.6,1.2-4.7,2.6-4.7,3c0,1.8,8.6,10.3,11.8,11.6c2.8,1.2,10.8,1.4,46.1,1.4c4.1,0,7.9,0,11.3,0
			c35.5,0,33.7-0.3,36.5-6.1c1.9-4.1,0.5-6.5-13.1-21.7c-17.1-17-15.3-25.2-15.4-31.2c-0.2-7.2,5.4-29.9,35-29.9L667,156.6
			 M437.6,213.3c16.4,0,19.7-0.3,23.2-1.8c11.8-5.1,12.4-20.2,1.1-27c-2.5-1.5-5.7-1.7-23.4-1.8l-20.6-0.1
			c0.2,0.2-0.1,29.4-0.1,29.4S423,213.3,437.6,213.3 M675.5,148.1h-8.6h-78.7c-17.1,0-27.2,6.7-32.7,12.4
			c-8.9,9.2-11,20.8-10.8,26.3c0,0.5,0,0.9,0,1.4c-0.1,8.9,1.2,18.9,17.8,35.5c3.3,3.7,8.7,9.9,10.8,12.9c-4.5,0.6-16,0.6-28,0.6
			h-5.1l-6.2,0c-21.2,0-39.1-0.1-42.8-0.8c-0.5-0.3-1.2-0.9-2-1.6c7.3-4.5,14.8-11.5,18.2-17.5c2.1-3.6,4.5-9.9,5.4-14.5
			c2.2-10.3-1.4-22.6-9.6-33.1c-9.6-12.2-23.4-19.6-38.1-20.1l-0.2,0h-0.2h-37.1h-48.3h-8.5l0,8.6l0.2,122.6l0,8.5l8.5,0l38.3,0.2
			l8.5,0l0.1-8.5l0.2-28.5c0.8,0.7,1.6,1.5,2.4,2.3c25.8,24.8,34.5,31.7,42.2,33.4c2.1,0.5,5.6,1.2,67.7,1.3h3c33.6,0,50.5,0,60.6-1
			c11.5-1.1,15.2-3.7,20.8-8.2l0.2-0.2c11.4-9.3,17.4-23.3,15.7-36.6c-1.1-8.6-3.4-12.2-12.7-23.9l-2.8-3.5
			c-3.2-4.1-7.2-8.9-9.8-12.2c-2.1-2.6-3.8-5-4.8-6.5c1.3,0,3,0,5.2,0c17.5,0,52.1,0.1,52.5,0.1l8.5,0l0-8.5l0.1-32.3L675.5,148.1
			L675.5,148.1z M426.4,204.4c0-2.2,0-4.6,0-7c0-2.1,0-4.3,0-6.2l11.9,0.1c6.9,0,17.2,0.1,19.2,0.7c2.6,1.6,4,4,3.8,6.5
			c-0.1,1.3-0.7,3.8-4.1,5.3c-1.9,0.8-4.8,1.1-19.8,1.1C432.8,204.7,429.2,204.6,426.4,204.4L426.4,204.4z"/>
        </g>
        <g>
            <path class="st0" d="M301.8,156.1l43,123.6l-35,0.2l-5.8-18.6l-62.6-0.5l-5.5,18.6l-34.7-0.4l42.4-122.9L301.8,156.1 M273.7,174.2
			c-0.1,0.4-5.5,15.2-10.9,30c-5.5,14.9-10.9,29.9-11,30c0,0,0,0,0,0l0,0c0,0,0,0,0,0c0.1,0,19.5-0.1,32-0.1c5.8,0,10.1,0,10.2,0
			c0,0,0,0,0,0s0,0,0,0c0,0,0,0,0,0C293.7,233.6,273.7,175,273.7,174.2C273.7,174.2,273.7,174.2,273.7,174.2L273.7,174.2
			C273.7,174.2,273.7,174.2,273.7,174.2 M307.9,147.6l-6.1,0l-58.2,0.1l-6.1,0l-2,5.7l-42.4,122.9l-3.9,11.2l11.8,0.1l34.7,0.4
			l6.4,0.1l1.8-6.2l3.7-12.4l50,0.4l4,12.6l1.9,6l6.3,0l35-0.2l11.9-0.1l-3.9-11.3l-43-123.6L307.9,147.6L307.9,147.6z M264,225.6
			c1.6-4.4,3.8-10.4,6.7-18.4c0.9-2.5,1.8-4.9,2.6-7c0.7,2.1,1.5,4.4,2.3,6.8c0.7,2,3.7,11,6.3,18.6
			C274.2,225.6,268.4,225.6,264,225.6L264,225.6z"/>
        </g>
        <g>
            <path class="st0" d="M316.3,8.5V39h-61.1v93.3h-36.4V39l-71.3,0.2c-8.6,0-9.7,6.8-9.7,9.5c0,3.2,2.1,6.4,13.6,21.1
			c7.5,9.5,14.4,19,15.3,21c4.9,11.4-1.5,29.1-13.1,36.3c-8.3,5.1-6.9,5.3-68.6,5.3c-3.2,0-6.5,0-10,0H8.5V98.1h104.4l3.1-2.1
			c2.1-1.5,3.3-3.4,3.7-6.2c0.6-3.9,0.3-4.4-12.6-19C91.9,53.6,90.3,50.5,91.1,39.5C92,27,103.2,8.8,122.7,8.8L316.3,8.5 M324.8,0
			l-8.5,0L122.7,0.3c-11.2,0-21.5,4.8-29.2,13.6c-6.2,7.1-10.3,16.5-10.9,25c-1,14.4,2.3,19.6,18.2,37.5c4.6,5.2,9,10.1,10.5,12.3
			c0,0.1,0,0.1-0.1,0.2c0,0,0,0-0.1,0.1l-0.9,0.6H8.5H0v8.5v34.3v8.5h8.5h66.4h5.3H85c30.4,0,45.4,0,54.3-0.7
			c10.1-0.7,13.4-2.5,18.2-5.5l0.6-0.4c15.2-9.4,23-31.8,16.4-47c-2-4.6-14.9-21.1-16.4-22.9c-4-5.1-10.7-13.6-11.8-16
			c0-0.2,0.1-0.4,0.1-0.6c0.2,0,0.5-0.1,1.1-0.1l62.8-0.2v84.8v8.5h8.5h36.4h8.5v-8.5V47.6h52.6h8.5V39V8.5V0L324.8,0z"/>
        </g>
        <g>
            <path class="st0" d="M415.6,9.5l42.9,124l-34.9-0.2l-5.7-18.6l-62.3-0.3l-5.6,17.9h-35.6L356.7,9.5L415.6,9.5 M365.6,88.1
			l42.4-0.1c0,0,0,0,0,0c0.1,0-20.6-61-20.8-61l0,0C387.2,26.9,365.2,88.1,365.6,88.1 M421.6,1h-6.1h-58.9h-6.1l-2,5.7l-42.4,122.8
			l-3.9,11.3h12h35.6h6.3l1.9-6l3.7-11.9l49.7,0.2l3.8,12.6l1.8,6l6.3,0l34.9,0.2l12,0.1l-3.9-11.4l-42.9-124L421.6,1L421.6,1z
			 M377.5,79.5c2.6-7.5,6.3-17.8,9.6-27c3.1,9.2,6.6,19.5,9.2,27L377.5,79.5L377.5,79.5z"/>
        </g>
        <g>
            <path class="st0" d="M535.9,9.5c27.6,0,46.8,0.4,50.5,1c8.5,1.5,16.2,6,22,13c6,7.3,7.4,10.8,8.2,20.8
			c1.1,14.2-5.6,26.4-18.9,34.3c-3.9,2.3-7.8,4.6-8.8,5c-1.5,0.7-1.3,1.4,1.4,4.6c1.8,2.1,4.8,5,6.8,6.5l3.6,2.8l66.2,0.9l0.6,33.8
			H627c-31.4,0-41.4-0.3-44.4-1.3c-4.4-1.5-15-10.5-36.6-31l-15.4-14.6l0.2,46.9h-39.5V9.5H535.9 M530.1,64.7h21
			c20.4,0,21.1-0.1,24-2.3c5.2-3.9,7-7.9,6.5-14.1c-0.6-6.4-3-9.7-9.2-12.4c-3.5-1.5-6.8-1.8-23.2-1.8h-19.1V64.7 M535.9,1h-44.6
			h-8.5v8.5v122.8v8.5h8.5h39.5h8.6l0-8.6l-0.1-26.9l0.9,0.9c26.6,25.4,34.5,31.1,39.7,32.9c4,1.3,10.6,1.7,47.1,1.7h40.6h8.7
			l-0.2-8.7l-0.6-33.8l-0.2-8.2l-8.2-0.1l-63.4-0.9l-1.3-1c-0.4-0.3-0.9-0.8-1.5-1.3c0.5-0.3,0.9-0.5,1.3-0.8
			c16-9.5,24.4-25,23-42.3c-0.9-11.7-3-17-10.2-25.6c-7-8.5-16.7-14.2-27.1-16C582.1,1.2,552.8,1,535.9,1L535.9,1z M538.6,42.8h10.6
			c15,0,17.9,0.2,19.7,1c3.5,1.5,3.8,2.2,4.1,5.3c0.3,3-0.1,4.3-3.1,6.5c-0.1,0.1-0.2,0.1-0.2,0.2c-2,0.4-9.4,0.4-18.6,0.4h-12.4
			L538.6,42.8L538.6,42.8z"/>
        </g>
    </g>
</svg>